<?xml version="1.0" encoding="iso-8859-1"?>
<!-- Generator: Adobe Illustrator 19.0.0, SVG Export Plug-In . SVG Version: 6.00 Build 0)  -->
<svg version="1.1" id="Layer_1" xmlns="http://www.w3.org/2000/svg" xmlns:xlink="http://www.w3.org/1999/xlink" x="0px" y="0px"
	 viewBox="0 0 484 484" style="enable-background:new 0 0 484 484;" xml:space="preserve">
<path style="fill:#161616;" d="M284,289.6h168V1.6h-17.6c-2.4,48-30.4,84.8-65.6,84.8s-63.2-36.8-65.6-84.8H284V289.6z"/>
<path style="fill:#19DAF4;" d="M464.8,102.4L460,64V1.6h-25.6c-2.4,64-30.4,116-65.6,116s-63.2-52-65.6-116H276V64l-4.8,38.4
	l-19.2,16v283.2h26.4h180H484V118.4L464.8,102.4z"/>
<path style="fill:#52C1DB;" d="M460,401.6h24V118.4l-19.2-16L460,64V1.6h-25.6c-2.4,64-30.4,116-65.6,116s-63.2-52-65.6-116H276V64
	l-5.6,40"/>
<path style="fill:#595959;" d="M284,401.6h168V1.6h-17.6c-2.4,64-30.4,116-65.6,116s-63.2-52-65.6-116H284V401.6z"/>
<g>
	<path style="fill:#333333;" d="M452,401.6V1.6h-17.6c-2.4,64-30.4,116-65.6,116s-63.2-52-65.6-116H284"/>
	<polygon style="fill:#333333;" points="388,283.2 324.8,220.8 358.4,174.4 420.8,250.4 	"/>
	<polygon style="fill:#333333;" points="452,328.8 404.8,264.8 317.6,284.8 432.8,401.6 452,401.6 	"/>
</g>
<path style="fill:#FFFFFF;" d="M412,169.6h-54.4l-3.2,23.2c3.2-0.8,5.6,0,9.6,0c13.6,0,28,3.2,38.4,10.4
	c11.2,7.2,17.6,19.2,17.6,36.8c0,27.2-23.2,51.2-62.4,51.2c-17.6,0-32-4-40.8-8l6.4-25.6c6.4,3.2,20,7.2,32.8,7.2
	c14.4,0,28.8-6.4,28.8-22.4c0-15.2-12-24-40.8-24c-8,0-13.6,1.6-20,2.4l9.6-75.2H412V169.6z"/>
<path style="fill:#E5E0D6;" d="M357.6,169.6l-3.2,23.2c3.2-0.8,7.2,0,10.4,0c13.6,0,28,4,38.4,11.2c11.2,7.2,16.8,19.2,16.8,36
	c0,27.2-23.2,51.2-62.4,51.2c-17.6,0-32-4-40.8-8l6.4-25.6c6.4,3.2,20,7.2,32.8,7.2c14.4,0,28.8-6.4,28.8-22.4c0-15.2-12-24-40.8-24
	c-8,0-13.6,1.6-20,2.4"/>
<circle style="fill:#EF8A11;" cx="162.4" cy="319.2" r="162.4"/>
<path style="fill:#CC6D05;" d="M277.6,204c63.2,63.2,63.2,166.4,0,230.4c-63.2,63.2-166.4,63.2-230.4,0"/>
<g>
	<path style="fill:#994C00;" d="M35.2,219.2c24,26.4,38.4,61.6,38.4,100.8s-14.4,73.6-38.4,100.8c4.8,6.4,10.4,12,16,17.6
		c28.8-31.2,46.4-72.8,46.4-117.6c0-45.6-17.6-87.2-46.4-117.6C44.8,207.2,40,212.8,35.2,219.2z"/>
	<path style="fill:#994C00;" d="M252,319.2c0-38.4,14.4-73.6,38.4-100.8c-4.8-6.4-10.4-12-16-17.6C245.6,232,228,273.6,228,318.4
		c0,44,16.8,85.6,46.4,117.6c5.6-5.6,11.2-11.2,16-17.6C265.6,392,252,356.8,252,319.2z"/>
	<path style="fill:#994C00;" d="M0,317.6c0,4,0,12,0.8,12h324c0,0,0.8-8,0.8-12s0-4-0.8-12H0.8C0,313.6,0,313.6,0,317.6z"/>
	<path style="fill:#994C00;" d="M148,157.6v324c8,0,8,0.8,12,0.8s12-0.8,12-0.8v-324c0,0-8-0.8-12-0.8S156,156.8,148,157.6z"/>
</g>
<g>
</g>
<g>
</g>
<g>
</g>
<g>
</g>
<g>
</g>
<g>
</g>
<g>
</g>
<g>
</g>
<g>
</g>
<g>
</g>
<g>
</g>
<g>
</g>
<g>
</g>
<g>
</g>
<g>
</g>
</svg>
