<svg height="512" viewBox="0 0 60 60" width="512" xmlns="http://www.w3.org/2000/svg"><g id="066---Basketball" fill="none"><g id="Icons" transform="translate(1 1)"><path id="Shape" d="m55 56.31c.0061831.8493376-.6246811 1.5686925-1.4675607 1.6734139s-1.6305951-.4383857-1.8324393-1.2634139c-2.661-11.233-8.627-18.669-20.13-20.41 6.3602677-4.5328643 9.5188877-12.3397252 8.1-20.02 10.2 8.71 14.23 23.44 15.21 36.93.07 1.25.11 2.3.12 3.09z" fill="#f57c00"/><path id="Shape" d="m52 56.31c.0115726.2607176-.0471422.5197533-.17.75-.057945-.107193-.1016477-.2214922-.13-.34-.18-.76-.41-1.69-.71-2.73h-.01c-2.99-9.87-9.1-16.12-19.41-17.68 5.3753438-3.8432208 8.5311008-10.0725731 8.45-16.68 8.24 9.39 11.83 24.37 11.98 36.68z" fill="#ff9801"/><path id="Shape" d="m20 0c-5.7526825-.00206987-11.22740688 2.47428428-15.0243785 6.7959005-3.79697163 4.3216162-5.5480892 10.069531-4.8056215 15.7740995 0 .03.01.05.01.08 1.42194972 10.6001653 10.9346538 18.2037713 21.5876199 17.2552152 10.6529661-.948556 18.6725941-10.1132671 18.1993132-20.7979033-.4732809-10.68463619-9.2718203-19.10437882-19.9669331-19.1073119z" fill="#d84315"/><path id="Shape" d="m18.55.06c-10.41628907.78196722-18.47652617 9.44816264-18.50271867 19.8937294-.02619249 10.4455667 7.99048216 19.1520754 18.40271867 19.9862706 10.4162891-.7819672 18.4765262-9.4481626 18.5027187-19.8937294.0261925-10.44556674-7.9904822-19.15207538-18.4027187-19.9862706z" fill="#ff5722"/></g><path id="Shape" d="m13.341 40.533c.0737184.0381666.1520223.0667325.233.085 6.3909733 2.4453758 13.5747218 1.6024269 19.226-2.256.3686667.06.729.1246667 1.081.194 1.388 4.932 6.871 7.85 12.428 7.394-3.015 3.7-.571 8.974 4.847 9.762.265.925.448 1.7.577 2.241.2288639.9444906.9516164 1.6907677 1.8882946 1.9497561s1.9401467-.0099944 2.6217054-.7027561c.4987338-.5050057.7718051-1.1903895.757-1.9-.011-.638-.04-1.554-.106-2.684 4.692-2.868 3.929-8.925-1.391-10.877-.148-.745-.315-1.507-.493-2.277 3.734-4.978 1.36-11.57-5.1-13.969-2.0990843-4.0623304-4.9274738-7.7039159-8.344-10.743-.633199-3.0271775-1.9311464-5.8758305-3.8-8.34-.0430636-.07846448-.0969217-.15049978-.16-.214-5.0484369-6.60006417-13.5324359-9.57459029-21.597-7.572-.0734983.01075114-.1455959.02953006-.215.056-3.3655404.86442504-6.46320574 2.55243615-9.014 4.912-.02939972.02374195-.05744382.04911518-.084.076-5.28611161 4.906118-7.67600171 12.1869068-6.3257552 19.271383 1.35024652 7.0844762 6.25063841 12.9757935 12.9707552 15.593617zm-11.109-16.722c3.59825328-5.2958313 8.6650783-9.4252694 14.578-11.881.921 3.03-1.16 7.75-2.476 10.847-1.873 4.406-3.64 8.6-2.089 15.068-5.38773886-2.8100533-9.10861749-8.0251547-10.013-14.034zm13.656-21.092c1.9220554 1.63222626 3.5116849 3.61943291 4.682 5.853-.933.242-1.854.513-2.755.826-1.7957981-2.4110089-4.5761961-3.89200468-7.579-4.037 1.7245286-1.18787079 3.6345774-2.08071387 5.652-2.642zm-1.288 36.147c-3.1-10.057 2.25-14.066 4.218-22.913.3949961-1.5592418.348601-3.1976098-.134-4.732.926-.315 1.872-.583 2.83-.818 3.838 7.942 5.966 19.412 6.784 28.135-4.3621645 1.8285942-9.2533133 1.9457132-13.698.328zm25.209-15.319c-2.692-9.418-9.27-11.35-11.315-14.122 2.61719-.11776696 5.2396492.01348994 7.832.392 2.9137506 3.944176 4.164298 8.873839 3.483 13.73zm-1.145 4.407c-1.6206036 4.0929024-4.6052366 7.5003791-8.449 9.646-.88-8.657-2.954-19.662-6.693-27.635.887-.157 1.813-.281 2.788-.376 2.011 4.586 10.69 5.128 12.354 18.365zm-2.42 11.19c3.1067706.9251778 5.9462352 2.5822179 8.28 4.832-3.701-.203-6.924-2.133-8.28-4.832zm17.1 4.038c.7129825 3.3739613 1.2017188 6.7914406 1.463 10.23-.6890052.2510107-1.4148265.386173-2.148.4-.9348972-2.9431064-2.3210734-5.7232179-4.109-8.241 1.7551631-.4332313 3.3928854-1.2490192 4.796-2.389zm-5.784 4.468c1.1799442 1.8234456 2.1431218 3.778327 2.87 5.825-2.73-.881-4.349-3.426-2.87-5.825zm7.253 10.15c-.1767059.1608156-.4232315.2203947-.6538757.1580256-.2306441-.0623691-.4135467-.238071-.4851243-.4660256-.1-.439-.243-1.023-.428-1.711.5727046-.0481837 1.1391752-.153371 1.691-.314.098 2.033.102 2.099-.124 2.333zm1.906-5.546c-.158-1.773-.4-3.845-.776-6.1 2.357 1.487 2.785 4.211.776 6.097zm-2.43-13.543c-.7704958-2.8262673-1.752946-5.590432-2.939-8.269 2.844 1.904 4.241 5.103 2.939 8.266zm-1.469 2.232c-1.533847 1.5459649-3.5247864 2.5568628-5.678 2.883-3.2122809-3.6321003-7.5146955-6.1259079-12.263-7.108 4.8186653-4.2404754 7.4226095-10.4592678 7.063-16.868 5.644 5.723 8.958 13.35 10.878 21.093zm-18.389-33.369c-2.1934079-.21301726-4.4000599-.25514425-6.6-.126.0426573-1.30677702.5102976-2.56399904 1.332-3.581 1.9533236.92830906 3.7346834 2.18182094 5.268 3.707zm-7.159-4.488c-.951586 1.32137906-1.4507154 2.91487521-1.423 4.543-1.107.115-2.179.255-3.266.471-1.1161327-2.16558324-2.5518838-4.15082352-4.259-5.889 3.0091056-.4537834 6.0838053-.15311708 8.948.875zm-19.504 4.307c3.039-.389 6.384.539 8.115 2.754-5.4604367 2.277493-10.23863677 5.9291817-13.87 10.6.0638678-5.0400173 2.13522354-9.8464265 5.755-13.354z" fill="#000"/></g></svg>